<svg width="130" height="61" viewBox="0 0 130 61" fill="none" xmlns="http://www.w3.org/2000/svg">
<path d="M10.0265 33.6022C10.2203 35.8653 9.83405 36.8508 8.72897 37.077C7.2712 37.3754 6.23372 35.8974 5.53582 32.4881C4.78497 28.8202 5.12991 27.0347 6.68173 26.7171C7.81033 26.4861 8.49125 27.1796 9.10716 29.1113L12.4987 27.6086C11.2461 24.3619 9.21687 23.1849 6.04269 23.8347C1.95153 24.6722 0.548695 27.7521 1.71828 33.4656C2.27661 36.193 3.08433 37.865 4.43599 39.0827C5.66472 40.1785 7.28558 40.5572 9.14306 40.1769C12.2467 39.5416 13.8704 37.4209 13.8223 34.0745L10.0265 33.6022Z" fill="#0741D6"/>
<path d="M20.1799 20.9407C17.8522 21.4172 16.4864 22.2847 15.6599 23.7523C14.7309 25.4368 14.6264 27.32 15.2618 30.4237C15.9019 33.5508 16.7331 35.218 18.259 36.449C19.5203 37.4647 21.0936 37.7306 23.2097 37.2974C25.655 36.7968 26.9834 35.986 27.8238 34.4666C28.7293 32.7868 28.8524 30.8753 28.2267 27.8187C27.5818 24.668 26.7457 22.9773 25.2247 21.7699C23.8832 20.7216 22.4136 20.4835 20.1799 20.9407ZM20.6779 23.852C22.4648 23.4862 23.6247 24.9636 24.3611 28.561C25.1023 32.1819 24.6163 33.9963 22.8293 34.3621C20.9954 34.7375 19.859 33.2553 19.1034 29.5638C18.3814 26.0369 18.8909 24.2178 20.6779 23.852Z" fill="#0741D6"/>
<path d="M39.739 17.2553L29.4641 19.3587L32.6745 35.0414L36.3659 34.2858L35.0327 27.7728L41.6162 26.4252L41.0241 23.5331L34.4407 24.8808L33.7668 21.5891L40.3503 20.2414L39.739 17.2553Z" fill="#0741D6"/>
<path d="M52.7581 14.5902L42.4832 16.6936L45.6936 32.3764L49.385 31.6207L48.0518 25.1078L54.6352 23.7601L54.0432 20.8681L47.4598 22.2157L46.7859 18.924L53.3694 17.5763L52.7581 14.5902Z" fill="#0741D6"/>
<path d="M65.9418 11.8915L55.5023 14.0285L58.7126 29.7113L69.1521 27.5743L68.5264 24.5176L61.7784 25.899L61.042 22.3016L67.79 20.9202L67.2125 18.0988L60.4644 19.4801L59.805 16.2589L66.5531 14.8776L65.9418 11.8915Z" fill="#0741D6"/>
<path d="M79.2135 9.17469L68.7739 11.3117L71.9843 26.9945L82.4238 24.8575L81.7981 21.8009L75.05 23.1822L74.3136 19.5848L81.0617 18.2035L80.4841 15.382L73.7361 16.7633L73.0767 13.5421L79.8247 12.1608L79.2135 9.17469Z" fill="#0741D6"/>
<path d="M77.8633 35.9902L76.66 30.1121L72.9686 30.8678L76.1789 46.5506L79.8704 45.7949L78.4553 38.8823L83.3224 37.886L84.7374 44.7986L88.4289 44.0429L85.2185 28.3602L81.5271 29.1158L82.7304 34.9939L77.8633 35.9902Z" fill="#0741D6"/>
<path d="M96.5145 25.9743L92.0001 26.8984L90.64 43.5903L94.4255 42.8154L94.5079 40.2263L99.1634 39.2733L100.21 41.6314L104.183 40.818L96.5145 25.9743ZM97.9274 36.5866L94.6592 37.2556L94.9371 29.9964L97.9274 36.5866Z" fill="#0741D6"/>
<path d="M106.625 23.9782L102.933 24.7339L106.143 40.4167L116.489 38.2989L115.863 35.2423L109.209 36.6044L106.625 23.9782Z" fill="#0741D6"/>
<path d="M119.896 21.2614L116.205 22.0171L119.415 37.6999L129.761 35.5821L129.135 32.5255L122.481 33.8876L119.896 21.2614Z" fill="#0741D6"/>
</svg>
